<svg width="100" height="100" xmlns="http://www.w3.org/2000/svg">

 <g>
  <title>background</title>
  <rect fill="none" id="canvas_background" height="402" width="582" y="-1" x="-1"/>
 </g>
 <g>
  <title>Layer 1</title>
  <path id="svg_4" d="m76.26865,20.9704c-5.15334,-3.51363 -12.32767,-2.38616 -16.02182,2.52444l-28.97328,38.52842c-2.63738,3.50419 -1.79143,8.38607 1.89275,10.8985c3.68417,2.50775 8.80491,1.70197 11.44229,-1.80684l20.45742,-27.20094l-2.66676,-1.8212l-20.4543,27.20328l0,0c-1.5843,2.10012 -4.65837,2.58637 -6.86277,1.08468c-2.20745,-1.50419 -2.71304,-4.43375 -1.13188,-6.53866l0,0l28.96953,-38.52608l0.00373,-0.00245l-0.00623,-0.00234c2.63426,-3.49695 7.77126,-4.30503 11.4454,-1.79973c3.67416,2.50767 4.52391,7.40156 1.89337,10.90084l0,-0.00233l-31.7558,42.228l0.00312,0.0048c-3.68723,4.90101 -10.87789,6.03328 -16.02494,2.52443c-5.147,-3.51607 -6.33148,-10.35743 -2.64736,-15.26324l23.07853,-30.68829l-2.66738,-1.81874l-23.07785,30.68829c-4.74726,6.31222 -3.22178,15.09148 3.40822,19.61108c6.62997,4.52438 15.84784,3.0703 20.5951,-3.23948l31.75508,-42.23048c3.68422,-4.90814 2.50286,-11.73759 -2.65417,-15.25599l0,0z" fill-opacity="null" stroke-opacity="null" stroke-width="null" stroke="null" fill="#EEEEEE"/>
 </g>
</svg>